<?xml version="1.0" encoding="UTF-8"?>
<svg id="Layer_1" data-name="Layer 1" xmlns="http://www.w3.org/2000/svg" viewBox="0 0 608.23 608.23">
  <defs>
    <style>
      .cls-1 {
        fill: #3faa39;
      }

      .cls-1, .cls-2, .cls-3, .cls-4, .cls-5 {
        stroke-width: 0px;
      }

      .cls-2 {
        fill: #0d7333;
      }

      .cls-3 {
        fill: #168d37;
      }

      .cls-4 {
        fill: #f2c405;
      }

      .cls-5 {
        fill: #035c2b;
      }
    </style>
  </defs>
  <g>
    <path class="cls-5" d="m333.41,339.25c61.43,19.58,120.32,45.98,174.28,78.68,27.31-3.76,54.67-6.35,81.93-7.74,7.45-19.97,12.85-40.94,15.98-62.64-89.09-17.6-182.33-20.34-272.19-8.3Z"/>
    <path class="cls-3" d="m28.69,433.03c22.39,47.69,56.78,88.64,99.3,118.92,56.68-34.53,117.92-63.33,181.62-85.82-89.44-32.51-188.3-44.73-280.92-33.1Z"/>
    <path class="cls-2" d="m3.84,352.38c1.63,10.16,3.76,20.15,6.37,29.95,108.8-3.37,223.08,23.96,320.65,76.55,55.38-18.19,112.4-31.62,169.72-39.94C349.94,346.66,168.12,321.34,3.84,352.38Z"/>
    <path class="cls-1" d="m136.56,557.81c48.11,31.85,105.78,50.41,167.8,50.41,112.75,0,211.17-61.3,263.77-152.39-147.77-.2-299.84,35.9-431.57,101.98Z"/>
    <g>
      <path class="cls-4" d="m380.32,175.2c11.28-14.23,27.94-22.88,40.88-41.75,5.46-7.98,25.83-55.02,47.29-85.98C426.66,20.63,377.82,3.77,325.33.19c-1.1,36.1-14.97,83.56-15.35,97.12-.47,17.4,8.66,38.68,10.19,57.98,21.79,2.29,42.18,9.27,60.15,19.91Z"/>
      <path class="cls-4" d="m430.3,140.06c-10.61,13.81-15.73,36.39-25.83,52.91,13.18,11.91,24.22,26.13,32.49,42.03,17.1-6.08,35.81-4.6,56.78-13.74,8.87-3.88,51.07-32.98,85.69-47.86-18.92-39.82-46.22-74.87-79.63-102.88-22.11,28.56-61.22,58.81-69.5,69.54Z"/>
      <path class="cls-4" d="m228.39,175.2c18.43-10.9,39.4-17.96,61.81-20.07.76-18.14,9.16-34.94,8.53-57.82-.27-9.67-11.43-59.65-12.27-97.31-53.66,3.11-103.59,20.11-146.24,47.48,21.46,30.96,41.83,77.99,47.29,85.97,12.94,18.87,29.6,27.52,40.88,41.75Z"/>
      <path class="cls-4" d="m593.81,209.52c-33.89,12.52-83.14,17.45-95.86,22.17-16.3,6.08-32.61,22.5-49.91,31.16,3.71,13.03,5.7,26.78,5.7,41,0,1.02-.02,2.02-.04,3.03,51.63-3.97,103.7-3.34,154.97,1.93.03-1.65.06-3.31.06-4.97,0-32.93-5.25-64.63-14.92-94.33Z"/>
      <path class="cls-4" d="m171.75,235c8.27-15.9,19.31-30.12,32.49-42.03-10.1-16.51-15.22-39.1-25.83-52.91-8.28-10.74-47.38-40.98-69.49-69.54-33.41,28.02-60.7,63.07-79.61,102.89,34.61,14.88,76.8,43.97,85.67,47.85,20.97,9.14,39.68,7.65,56.78,13.74Z"/>
      <path class="cls-4" d="m160.66,262.85c-17.3-8.66-33.6-25.08-49.91-31.16-12.72-4.72-61.96-9.65-95.84-22.17C5.44,238.6.21,269.59,0,301.77c50.99-4.72,103.08-4.4,154.98.7.12-13.73,2.09-27.02,5.68-39.62Z"/>
    </g>
  </g>
</svg>